<?xml version="1.0" encoding="utf-8"?>
<!-- Generator: Adobe Illustrator 23.1.0, SVG Export Plug-In . SVG Version: 6.00 Build 0)  -->
<svg version="1.1" baseProfile="tiny" id="圖層_1"
	 xmlns="http://www.w3.org/2000/svg" xmlns:xlink="http://www.w3.org/1999/xlink" x="0px" y="0px" viewBox="0 0 413.8 89.7"
	 xml:space="preserve">
<g>
	<g>
		<path fill="#FFFFFF" d="M95.5,43.5c0,0-4,10.3-10.7,18.3h0.6h9.3l2.4-4.2c5.9,6,14,8.8,14,8.8C96,53.7,95.5,43.5,95.5,43.5z"/>
		<path fill="#FFFFFF" d="M73.2,9.3c15.3,3.6,27.5,16.3,36.1,26.5c-0.1-0.3-0.2-0.5-0.3-0.8c-1.7-3.7-3.6-7.2-5.9-10.6l0,0
			c2.6-0.7,4.3-2.5,4.4-4.6c0.1-2.7-2.1-4.3-5-4.7l1.4-3H93.4c0,0,1.7,1.2,3.1,2.9h2.3h1.3l-1.2,2.7c0.5-0.5,1.8-1,2.8-1
			c1.7,0,3,1.2,3,2.3c0,1-1,2.2-2.7,2.2c-0.5,0-1-0.1-1.4-0.2l0,0l0,0C91.9,10.1,78.9,1.5,61.8,0.2C36.9-1.7,23.5,10.6,15.4,25.8
			h12.8C33.8,14.2,47.6,3.2,73.2,9.3z"/>
		<path fill="#FFFFFF" d="M98.9,17.7L98.9,17.7L98.9,17.7z"/>
		<path fill="#FFFFFF" d="M81.9,65.9c-8,10.5-20.7,17.3-35,17.3c-6,0-11.3-1.4-16.1-3.4c-2-0.9-9.4-4.7-17.6-12.8
			c0,0,4.1,12,16.7,18l0,0c5.9,3,12.7,4.8,20.3,4.8c17.9,0,33.6-9.5,42.3-23.8L81.9,65.9L81.9,65.9z"/>
		<path fill="#FFFFFF" d="M95,29.9h-9.9l0,0l-6.2,18.6l0,0l-4.3-18.6l0,0h-3.8l0,0l-4.3,18.6l0,0l-6.2-18.6l0,0H48.9l0,0
			c0,0,0.3,0.2,0.7,0.7s0.5,1.1,0.4,1.7c-0.9,3.6-3.8,10.4-13.1,15.6l0,0l3.6-15.7l0,0c0.3-0.5,0.5-0.9,0.8-1.2
			c0.1-0.1,0.1-0.2,0.2-0.2l0,0c0.6-0.6,1-0.8,1-0.8h-0.2h-0.8H12.2l0,0l-3.4,6l0,0l12.4,12.8c0.8,0.8,1.6,2.3,1.6,3.7
			c0,2.8-2.3,5.1-5.1,5.1l0,0H8.3c-2.1,0-3.9-1.6-4-3.7c-0.1-2.2,1.7-4.1,3.9-4.1h5.3l0,0l0.8-1.4l1.6-2.8l0,0H8.1l0,0
			c-4.6,0-8.3,3.8-8.1,8.4c0.1,4.4,3.9,7.9,8.3,7.9c0,0,9.3,0,9.4,0c5.1,0,9.3-4.2,9.3-9.3c0-2.8-1.3-5.2-3.2-7l0,0L13.4,35l0,0
			h21.3l0,0l-5.5,24c-0.5,1.9-2.8,2.7-3.3,2.8l0,0h6.8l0,0c0,0,0.2-0.1,0.5-0.4c0.5-0.5,0.8-1.1,0.9-1.7l2.4-10.4c0,0,0-0.1,0.1-0.1
			c1.1-0.1,12.6-2.2,11.5,2.9l-1.5,6.6c-0.5,2.1-1.6,2.9-1.8,3l0,0h9.9l0,0c0,0,0.7-0.4,1.3-1.4c0.6-1.3,1.4-1.7,1.4-1.7h-0.7h-0.5
			h-1.5h-2.2c-0.4,0-0.7-0.4-0.6-0.8l2-8.8c0.1-0.4,0.1-0.7,0.1-1.1c-0.1-1.5-1.4-2.6-2.8-2.6h-6l0,0c0,0,7.7-4.1,11.2-10.6l0,0l0,0
			l8.1,26.9l0,0h3.8l0,0l4.3-19l0,0l4.3,19l0,0h3.8l0,0l8.1-26.1c0.1-0.4,0.3-0.7,1.2-0.7h1.4l0,0C92.8,32.2,94.4,30.5,95,29.9
			l0.1-0.2H95V29.9z"/>
	</g>
	<g>
		<g>
			<g>
				<path fill="#FFFFFF" d="M172.8,46.9c0,0.5-0.3,0.8-0.7,1c-0.6,0.2-1.2,0.2-1.8-0.1c-0.3-0.2-0.5-0.5-0.5-1V35.5
					c-1.7,3.5-3.7,5.9-5.9,7.3c-0.2,0.1-0.3,0.1-0.4,0c-0.1-0.1,0-0.3,0.1-0.4c2.5-2.8,4.2-7,5.3-12.7h-3l-1.8,0.3
					c-0.2,0.1-0.3,0.1-0.3-0.1c-0.1-0.3-0.2-0.7-0.3-1.1c0-0.1,0.1-0.2,0.3-0.1l2.1,0.2h3.8v-5.6c-0.3,0.1-0.5,0.1-0.7,0.1
					c-2.1,0.3-3.7,0.5-4.8,0.6c-0.3,0-0.4-0.1-0.4-0.2c0-0.2,0.1-0.3,0.3-0.3c4.6-1.3,8-2.7,10-4.2c0.2-0.2,0.4-0.2,0.5-0.2
					c1,0.5,1.8,1,2.5,1.6c0.4,0.3,0.5,0.6,0.4,0.9c-0.1,0.2-0.4,0.3-0.9,0.2c-0.1,0-1.4,0.2-3.8,0.9v6.2h1.1c0.2,0,0.4-0.1,0.5-0.2
					c0.5-0.6,1-1.3,1.5-1.9c0.1-0.2,0.3-0.2,0.5,0c1,0.6,1.8,1.4,2.5,2.3c0.1,0.2,0.2,0.3,0.1,0.4c-0.1,0.1-0.3,0.2-0.5,0.2h-5.7
					v2.4c0.1,0,0.3,0,0.4,0.1c2.3,0.8,3.9,2,4.8,3.7c0.3,0.5,0.4,1.1,0.2,1.7c-0.1,0.6-0.5,0.9-1,1.1c-1.1,0.3-1.8-0.2-2.1-1.6
					c-0.4-1.8-1.2-3.1-2.3-4L172.8,46.9L172.8,46.9z M183,44.9c0,0.6-0.2,1-0.4,1.2c-0.3,0.3-0.8,0.4-1.5,0.4
					c-0.4,0-0.7-0.1-0.9-0.3s-0.2-0.4-0.2-0.7V22.9c0-0.1,0-0.2,0.1-0.2c0,0,0.1,0,0.2,0c0.9,0.2,1.8,0.6,2.8,1.1h3.5
					c0.3,0,0.5,0,0.6-0.2c0.4-0.5,0.7-0.8,0.8-0.9c0.2-0.2,0.4-0.3,0.6-0.2c1.2,0.4,2,0.9,2.7,1.3c0.6,0.5,0.5,1-0.3,1.3
					c-0.2,0.1-0.2,0.2-0.2,0.3v19.2c0,0.4-0.2,0.7-0.5,0.9s-0.8,0.3-1.4,0.3c-0.4,0-0.7-0.1-0.9-0.3c-0.1-0.1-0.2-0.3-0.2-0.6v-2.4
					H183V44.9z M187.8,41.8V24.7c-0.1-0.2-0.2-0.2-0.3-0.1H183v17.2C183,41.8,187.8,41.8,187.8,41.8z"/>
				<path fill="#FFFFFF" d="M200.4,33.6c-0.1,0-0.2,0-0.2-0.1s0-0.2,0.2-0.2c5.5-3.2,9.7-7.8,12.8-13.8c0.1-0.1,0.2-0.2,0.3-0.2
					c0.9,0.4,1.8,0.9,2.7,1.5c0.4,0.3,0.5,0.5,0.4,0.8c-0.1,0.2-0.3,0.2-0.6,0.2c0.7,1.1,1.6,2.2,2.7,3.3c3.2,2.9,6.6,4.6,10.2,5.1
					c0.2,0,0.3,0.1,0.3,0.2s-0.1,0.3-0.2,0.3c-0.6,0.2-1.2,0.7-1.7,1.2c-0.4,0.6-0.6,1.2-0.7,1.6c0,0.2-0.2,0.2-0.5,0.1
					c-0.4-0.1-0.9-0.3-1.3-0.5c-4.3-2-7.4-5.6-9.4-10.9C210.5,28.4,205.6,32.2,200.4,33.6z M206.2,34.6c0-0.1,0-0.3,0-0.5
					c0-0.1,0-0.1,0.2-0.1c1.1,0.1,2.1,0.2,3.1,0.4c0.4,0.1,0.6,0.3,0.6,0.5c0,0.3-0.2,0.5-0.5,0.5c-0.2,0.1-0.3,0.2-0.3,0.4v10h4.3
					V29.6c0-0.1,0-0.3,0-0.5c0-0.1,0-0.1,0.2-0.1c1.1,0.1,2.1,0.2,3.1,0.4c0.4,0.1,0.6,0.3,0.6,0.5c0,0.3-0.2,0.5-0.5,0.5
					c-0.2,0.1-0.3,0.2-0.3,0.4V36h2.1c0.2,0,0.4-0.1,0.5-0.2c0.5-0.7,1-1.3,1.6-2c0.2-0.2,0.3-0.2,0.5-0.1c1.1,0.7,1.9,1.5,2.6,2.4
					c0.1,0.2,0.2,0.3,0.1,0.4c-0.1,0.1-0.3,0.2-0.5,0.2h-7v9.1h6.3c0.2,0,0.4-0.1,0.5-0.3c0.5-0.7,1-1.3,1.6-2
					c0.2-0.2,0.4-0.2,0.6-0.1c1.1,0.7,2,1.5,2.7,2.5c0.1,0.2,0.2,0.3,0.1,0.4c-0.1,0.1-0.3,0.2-0.5,0.2h-25.2l-1.8,0.3
					c-0.2,0.1-0.3,0.1-0.3-0.1c-0.1-0.3-0.2-0.7-0.3-1.1c0-0.1,0.1-0.2,0.3-0.1l2.1,0.2h3.4L206.2,34.6L206.2,34.6z"/>
				<path fill="#FFFFFF" d="M253,47.3c0,0.5-0.3,0.8-0.7,1c-0.6,0.2-1.2,0.2-1.7-0.1c-0.3-0.2-0.5-0.5-0.5-0.9v-7
					c-1.2,1.4-2.8,2.7-4.6,3.9c-2.7,1.5-5.2,2.5-7.7,3c-0.2,0.1-0.3,0-0.3-0.1s0-0.3,0.2-0.3c2-0.8,4-1.9,6.1-3.5
					c2-1.6,3.5-3.2,4.3-4.9H240l-1.8,0.3c-0.2,0.1-0.3,0.1-0.3-0.1c-0.1-0.3-0.2-0.7-0.3-1.1c0-0.1,0.1-0.2,0.3-0.1l2.1,0.2h10.1V35
					h-6.3l-1.8,0.3c-0.2,0.1-0.3,0.1-0.3-0.1c-0.1-0.3-0.2-0.7-0.3-1.1c0-0.1,0.1-0.2,0.3-0.1l2.1,0.2h6.3v-2.5h-8.6l-1.8,0.3
					c-0.2,0.1-0.3,0.1-0.3-0.1c-0.1-0.3-0.2-0.7-0.3-1.1c0-0.1,0.1-0.2,0.3-0.1l2.1,0.2h5.7c-0.3-0.3-0.4-0.7-0.5-1.3
					c-0.1-1.2-0.5-2.1-1.2-2.7c-0.1-0.1-0.1-0.1-0.1-0.2h-5.1l-1.8,0.3c-0.2,0.1-0.3,0.1-0.3-0.1c-0.1-0.3-0.2-0.7-0.3-1.1
					c0-0.1,0.1-0.2,0.3-0.1l2.1,0.2h7v-6.3c0-0.1,0-0.3,0-0.5c0-0.1,0-0.1,0.2-0.1c1.1,0.1,2.1,0.2,3,0.4c0.4,0.1,0.6,0.3,0.6,0.5
					c0,0.3-0.2,0.4-0.5,0.5c-0.2,0.1-0.3,0.2-0.3,0.4v5.1h2.3v-6.2c0-0.1,0-0.3,0-0.5c0-0.1,0-0.1,0.2-0.1c1.1,0.1,2.1,0.2,3,0.4
					c0.4,0.1,0.6,0.3,0.6,0.5c0,0.3-0.2,0.4-0.5,0.5c-0.2,0.1-0.3,0.2-0.3,0.4v5h1.3c0.8-1.6,1.4-3.6,1.7-5.9c0-0.1,0.1-0.1,0.2-0.1
					c1,0.3,1.9,0.7,2.8,1.2c0.3,0.2,0.5,0.4,0.5,0.5c0,0.2-0.2,0.3-0.5,0.3c-0.1,0-0.2,0.1-0.3,0.2c-1,1.5-2.3,2.8-3.7,3.8h3.4
					c0.2,0,0.4-0.1,0.5-0.2c0.5-0.6,1-1.2,1.5-1.8c0.1-0.2,0.3-0.2,0.5,0c0.9,0.6,1.7,1.4,2.3,2.2c0.1,0.2,0.2,0.3,0.1,0.4
					s-0.3,0.2-0.5,0.2h-9.1c0.6,0.2,1.1,0.4,1.6,0.6c0.4,0.2,0.6,0.4,0.6,0.6s-0.2,0.3-0.5,0.4c-0.2,0-0.4,0.1-0.6,0.3
					c-0.8,0.9-1.8,1.6-2.8,2.2h5.3c0.2,0,0.4-0.1,0.5-0.2c0.5-0.6,1-1.2,1.5-1.8c0.1-0.2,0.3-0.2,0.5,0c0.9,0.6,1.7,1.4,2.3,2.2
					c0.1,0.2,0.2,0.3,0.1,0.4s-0.3,0.2-0.5,0.2H253v2.5h3.7c0.2,0,0.4-0.1,0.5-0.2c0.4-0.6,0.9-1.1,1.4-1.7c0.1-0.1,0.3-0.2,0.5,0
					c0.9,0.6,1.7,1.3,2.2,2.1c0.1,0.2,0.2,0.3,0.1,0.4c-0.1,0.1-0.3,0.2-0.5,0.2H253v2.5h7.7c0.2,0,0.4-0.1,0.5-0.2
					c0.5-0.6,1-1.2,1.5-1.8c0.1-0.2,0.3-0.2,0.5,0c0.9,0.6,1.7,1.4,2.3,2.2c0.1,0.2,0.2,0.3,0.1,0.4c-0.1,0.1-0.3,0.2-0.5,0.2h-11.7
					c0.8,1,2.3,2,4.4,3.1c2.3,1.2,4.9,1.9,7.6,2.3c0.2,0,0.3,0.1,0.4,0.2c0,0.1,0,0.3-0.2,0.3c-1.2,0.4-2,1.2-2.4,2.4
					c-0.1,0.2-0.2,0.3-0.5,0.2c-5-2.4-8.2-5.2-9.6-8.2v8.8H253z M240.4,19.8c0-0.1,0.1-0.2,0.3-0.2c2.4,0.5,4,1.6,4.8,3.2
					c0.2,0.5,0.3,1.1,0.1,1.7c-0.1,0.5-0.5,0.9-1,1c-1.1,0.2-1.7-0.3-1.9-1.6c-0.3-1.8-1-3.1-2.2-3.8
					C240.4,20,240.4,19.9,240.4,19.8z M253.5,30.9c0.8-1.5,1.3-2.9,1.6-4.2h-8.6c1.4,0.4,2.3,1.1,2.8,2.1c0.2,0.5,0.2,1,0,1.5
					c-0.1,0.2-0.2,0.4-0.3,0.5L253.5,30.9L253.5,30.9z"/>
				<path fill="#FFFFFF" d="M284.4,47.1c0,0.5-0.2,0.8-0.6,1c-0.6,0.3-1.3,0.3-2,0c-0.3-0.2-0.4-0.5-0.4-1V31.7
					c-2,2.3-4.1,4.1-6.3,5.3c-0.1,0.1-0.2,0.1-0.2,0s0-0.2,0.1-0.3c3.5-3.4,6.2-7.5,8.1-12.4h-6l-1.8,0.3c-0.2,0.1-0.3,0.1-0.3-0.1
					c-0.1-0.3-0.2-0.7-0.3-1.1c0-0.1,0.1-0.2,0.3-0.1l2.1,0.2h6.3c0.5-1.5,0.9-3,1.2-4.4c0-0.1,0.1-0.2,0.3-0.2c1,0.1,2,0.4,3,0.7
					c0.4,0.2,0.6,0.4,0.6,0.6c0,0.3-0.2,0.4-0.7,0.4c-0.1,0-0.5,1-1.4,2.9h10.5c0.2,0,0.4-0.1,0.5-0.3c0.5-0.7,1-1.3,1.6-2
					c0.2-0.2,0.4-0.2,0.6-0.1c1.1,0.7,2,1.5,2.7,2.5c0.1,0.2,0.2,0.3,0.1,0.4s-0.3,0.2-0.5,0.2h-16c-0.5,1-1.1,2-1.6,3v1.5h9.6
					c0.3,0,0.5-0.1,0.7-0.2c0.4-0.5,0.7-0.9,0.9-1.1c0.2-0.1,0.3-0.2,0.5-0.1c1.2,0.6,2.1,1.1,2.7,1.6c0.6,0.6,0.5,1-0.5,1.4
					c-0.3,0.1-0.4,0.4-0.4,0.7v13.9c0,1.2-0.4,2-1.2,2.5c-0.8,0.5-1.6,0.7-2.4,0.7c-0.2,0-0.3,0-0.3-0.2c-0.3-1.4-1.2-2.2-2.7-2.4
					c-0.2-0.1-0.3-0.2-0.3-0.4s0.2-0.3,0.5-0.2c1.8,0,2.8-0.1,3-0.3s0.3-0.4,0.3-0.7v-3.8h-10.6v7H284.4z M294.9,34.2V30
					c-0.1-0.2-0.2-0.3-0.3-0.2h-10.2v4.4H294.9z M294.9,39.3V35h-10.6v4.3H294.9z"/>
				<path fill="#FFFFFF" d="M315.3,46.7c0,0.6-0.2,1-0.4,1.2c-0.3,0.3-0.8,0.4-1.5,0.4c-0.4,0-0.7-0.1-0.9-0.3
					c-0.2-0.2-0.2-0.4-0.2-0.7V19.5c0-0.1,0-0.2,0.1-0.2c0,0,0.1,0,0.2,0c0.9,0.2,1.8,0.6,2.8,1.1h3c0.1,0,0.2-0.1,0.3-0.2
					c0.2-0.3,0.5-0.6,0.8-0.8c0.1-0.1,0.2-0.1,0.4,0c0.8,0.3,1.6,0.8,2.3,1.4c0.2,0.2,0.3,0.4,0.3,0.5c0,0.2-0.2,0.4-0.5,0.5
					c-0.2,0.1-0.4,0.3-0.6,0.7c-1.5,3.2-2.4,5.1-2.6,5.6c-0.5,0.8-0.6,1.3-0.3,1.5c1.6,1.3,2.8,2.7,3.4,4.3c0.7,1.9,0.7,3.7-0.2,5.3
					c-0.4,0.8-1,1.3-1.7,1.6s-1.4,0.5-2.3,0.5c-0.1,0-0.2-0.1-0.2-0.2c0-0.7-0.2-1.2-0.5-1.6c-0.3-0.5-0.9-0.9-1.5-1.1v8.3H315.3z
					 M315.3,21.2v16.3c0.7,0.2,1.4,0.3,2,0.3c0.7,0,1.2-0.2,1.4-0.5c0.2-0.2,0.3-0.4,0.5-0.7c0.5-1.6,0.2-3.4-1.1-5.5
					c-0.9-1.3-1.3-2-1.3-2.1c0.9-2.8,1.6-5.4,1.9-7.8C318.7,21.2,315.3,21.2,315.3,21.2z M333.4,39.6c1.9,2.7,4,4.4,6.3,5
					c0.2,0.1,0.2,0.1,0.2,0.2c0,0.1-0.1,0.2-0.2,0.2c-0.8,0.4-1.6,1.2-2.2,2.4c-0.1,0.2-0.2,0.2-0.4,0.1c-2.8-1.7-4.8-4.1-5.9-6.9
					c-1-2.8-1.5-5.9-1.4-9.1h-3.1v11.8c1.2-0.3,2.4-0.7,3.7-1.1c0.2-0.1,0.3-0.1,0.4,0.1c0.1,0.1,0,0.3-0.1,0.4
					c-1.1,0.9-2.5,1.7-4.2,2.5c-2.9,1.2-4.4,2-4.4,2.1c-0.1,0.4-0.3,0.6-0.5,0.6s-0.4-0.2-0.6-0.6c-0.3-0.8-0.7-1.7-1-2.7
					c-0.1-0.2,0-0.3,0.3-0.3c1.2-0.1,2.3-0.2,3.4-0.3V19.4c0-0.2,0.1-0.4,0.2-0.3c1,0.3,2.1,0.8,3.2,1.4h5.5c0.3,0,0.5,0,0.6-0.2
					c0.4-0.5,0.7-0.8,0.8-0.9c0.2-0.2,0.4-0.3,0.6-0.2c1.2,0.4,2,0.9,2.7,1.3c0.6,0.5,0.5,1-0.3,1.3c-0.2,0.1-0.2,0.2-0.2,0.3v10
					c0,0.4-0.2,0.7-0.5,0.9s-0.8,0.3-1.4,0.3c-0.4,0-0.7-0.1-0.9-0.3c-0.1-0.1-0.2-0.3-0.2-0.6v-0.9h-3.3c0,0,0,0,0,0.1
					c0.1,2.2,0.9,4.6,2.5,7.3c1.3-1.1,2.7-2.7,3.9-4.8c0-0.1,0.1-0.1,0.2-0.1c0.8,0.5,1.6,1.1,2.3,1.7c0.2,0.3,0.3,0.5,0.2,0.7
					c-0.1,0.2-0.4,0.2-0.7,0.1c-0.1,0-0.2,0-0.3,0.1C337,38,335.2,39,333.4,39.6L333.4,39.6z M326.7,25.7h7v-4.3
					c-0.1-0.2-0.2-0.2-0.3-0.1h-6.7V25.7z M326.7,30.7h7v-4.2h-7V30.7z"/>
				<path fill="#FFFFFF" d="M355.9,20.7c0-0.2,0.2-0.2,0.4-0.2c1.4,0.4,2.5,0.9,3.3,1.4c0.3,0.2,0.4,0.4,0.3,0.6
					c-0.1,0.3-0.3,0.4-0.8,0.4c-0.3,0-0.6,0.5-0.9,1.3c-2.9,5.6-5.9,9.3-9,10.9c-0.2,0.1-0.3,0.1-0.4,0s-0.1-0.2,0.1-0.4
					c2.7-2.6,4.9-6.4,6.4-11.5C355.6,22.1,355.8,21.3,355.9,20.7z M353.1,46.8c-0.5,0.1-0.8,0.3-0.9,0.4c-0.1,0.3-0.2,0.4-0.4,0.4
					c-0.3,0-0.4-0.1-0.5-0.4c-0.5-1.3-0.8-2.3-0.9-3.1c0-0.2,0.1-0.3,0.3-0.3c0.8,0,2,0,3.5,0c1.1-1.9,2.1-3.9,2.8-6
					c1.3-3.7,1.9-6.2,1.9-7.7c0-0.1,0.1-0.2,0.2-0.2c1,0.2,2.1,0.5,3,0.9c0.4,0.1,0.5,0.3,0.5,0.5s-0.2,0.3-0.5,0.3
					c-0.1,0-0.2,0.1-0.3,0.3c-1.6,4.6-3.9,8.5-6.9,11.8c5.6-0.3,10.5-0.8,14.7-1.4c-1-2-2.3-3.5-3.8-4.4c-0.1-0.1-0.1-0.2-0.1-0.3
					s0.1-0.1,0.3-0.1c2.3,0.8,4.2,2.1,5.7,3.9c1.6,2.1,2.2,3.7,1.9,4.8c-0.2,0.5-0.5,0.8-1,1c-0.5,0.1-0.9,0-1.3-0.3
					c-0.3-0.3-0.5-0.8-0.6-1.4c-0.2-0.9-0.4-1.7-0.8-2.5C365.3,44.5,359.6,45.7,353.1,46.8z M363.3,20.1h2c0.1,0,0.2-0.1,0.2-0.2
					c0.1-0.2,0.2-0.3,0.4-0.5c0.1-0.1,0.2-0.1,0.3-0.1c0.5,0.2,0.9,0.4,1.3,0.6c0.5,0.3,0.4,0.7-0.4,1c-0.2,0.1-0.2,0.2-0.1,0.4
					c0,0.1,0.1,0.2,0.1,0.3c1.8,5.6,5,8.8,9.6,9.7c0.2,0,0.3,0.1,0.4,0.3c0,0.1-0.1,0.2-0.2,0.3c-1.6,0.6-2.7,1.6-3.1,2.9
					c-0.1,0.2-0.2,0.2-0.5,0c-3.6-2.4-6-7.1-7.2-14h-2.7l-1.7,0.2c-0.2,0.1-0.4,0.1-0.4,0c-0.1-0.4-0.2-0.7-0.3-1.1
					c0-0.1,0.1-0.1,0.3-0.1L363.3,20.1z"/>
				<path fill="#FFFFFF" d="M389.5,20.7h18.8c0.3,0,0.4-0.1,0.5-0.2c0.3-0.4,0.6-0.8,0.9-1.2c0.1-0.1,0.3-0.2,0.5-0.1
					c0.9,0.4,1.7,0.9,2.3,1.5c0.5,0.5,0.4,1-0.2,1.3c-0.2,0.1-0.3,0.2-0.3,0.5v22.2c0,1.2-0.4,2.1-1.2,2.6c-0.9,0.5-1.8,0.8-2.7,0.8
					c-0.1,0-0.2-0.1-0.2-0.4c-0.2-1.2-1.1-2-2.7-2.5c-0.2-0.1-0.3-0.2-0.2-0.3c0-0.1,0.1-0.2,0.3-0.2c1.2,0,2.2,0,3-0.1
					c0.4,0,0.6-0.2,0.7-0.4c0.1-0.1,0.1-0.2,0.1-0.5v-22c-0.1-0.2-0.2-0.2-0.4-0.2h-19.1l-1.7,0.2c-0.3,0.1-0.4,0.1-0.4,0
					c-0.1-0.4-0.2-0.8-0.3-1.2c0-0.1,0.1-0.1,0.3-0.1L389.5,20.7z M389.7,26.2h11c0.2,0,0.4-0.1,0.5-0.2c0.5-0.7,1-1.3,1.6-2
					c0.2-0.2,0.3-0.2,0.5-0.1c1.1,0.7,1.9,1.5,2.6,2.4c0.1,0.2,0.2,0.3,0.1,0.4s-0.3,0.2-0.5,0.2h-15.9l-1.8,0.3
					c-0.2,0.1-0.3,0.1-0.3-0.1c-0.1-0.3-0.2-0.7-0.3-1.1c0-0.1,0.1-0.2,0.3-0.1L389.7,26.2z M392.7,42.3c0,0.5-0.2,0.8-0.5,1
					c-0.4,0.2-0.9,0.4-1.3,0.4s-0.7-0.1-0.9-0.2c-0.1-0.1-0.2-0.4-0.2-0.7V30.2c0-0.2,0-0.2,0.1-0.2c1.2,0.2,2.3,0.6,3.1,1.2h6.5
					c0.1,0,0.3-0.1,0.3-0.2c0.2-0.3,0.5-0.5,0.7-0.7c0.1,0,0.2-0.1,0.3,0c0.9,0.3,1.7,0.8,2.5,1.3c0.5,0.4,0.5,0.8-0.2,1.1
					c-0.2,0.1-0.3,0.2-0.3,0.5v8c0,0.3-0.2,0.6-0.5,0.8s-0.8,0.3-1.4,0.3c-0.4,0-0.7-0.1-0.9-0.3c-0.1-0.2-0.2-0.5-0.2-0.8v-1.3
					h-7.3v2.4H392.7z M400.1,39v-6.9c-0.1-0.2-0.2-0.2-0.3-0.1h-7v7H400.1z"/>
			</g>
			<path fill="#FFFFFF" d="M153.2,45.3c-1.8-0.8-3.5-2.1-5.2-4c1.8-2.6,3-6.2,3.5-10.9c0-0.3,0.1-0.4,0.3-0.5
				c0.4-0.1,0.6-0.2,0.6-0.5c0-0.2-0.1-0.5-0.5-0.7c-0.6-0.3-1.4-0.6-2.4-0.9c-0.2-0.1-0.4,0-0.5,0.2c-0.1,0.1-0.4,0.3-0.7,0.6
				c-0.1,0.1-0.2,0.1-0.5,0h-6.1c0-0.5,0-1,0-1.5v-5h10.8c0.3,0,0.4-0.1,0.5-0.2s0-0.3-0.1-0.4c-0.7-0.9-1.5-1.7-2.5-2.3
				c-0.2-0.1-0.4-0.1-0.5,0c-0.5,0.6-1.1,1.2-1.5,1.8c-0.1,0.1-0.2,0.2-0.5,0.2h-6.2c-1-0.5-1.9-0.9-2.7-1.2c-0.1,0-0.2,0.1-0.2,0.2
				V27c0,4.4-0.2,8.2-0.7,11.3H138c-1.5,0.6-2.9,1-4.2,1.4V29.5h4c0.2,0,0.4-0.1,0.5-0.2c0.1-0.2,0-0.4-0.2-0.6
				c-0.5-0.8-1-1.5-1.7-1.9c-0.3-0.2-0.5-0.2-0.6,0.1c-0.5,0.6-0.9,1.2-1.2,1.7c-0.1,0.1-0.2,0.2-0.5,0.2h-0.3V22
				c0-0.2,0.1-0.3,0.3-0.4c0.3-0.1,0.5-0.3,0.5-0.5s-0.2-0.4-0.6-0.5c-1-0.2-2-0.3-3.1-0.4c-0.1,0-0.2,0-0.2,0.1v8.4h-0.9l-2.2-0.2
				c-0.2,0-0.3,0-0.3,0.1c0.1,0.4,0.2,0.7,0.2,1.1c0,0.1,0.1,0.2,0.2,0.1l2-0.2h0.9v11c-1,0.1-2.1,0.3-3.3,0.4
				c-0.3,0-0.4,0.1-0.3,0.3c0.3,1,0.7,1.9,1,2.7c0.2,0.4,0.4,0.6,0.6,0.6c0.2-0.1,0.4-0.3,0.5-0.6c0-0.2,1.5-1,4.5-2.3
				c1.7-0.8,3.1-1.6,4.2-2.5c-0.4,2.3-0.9,4.3-1.5,5.8c-0.1,0.2-0.3,0.8-0.3,0.8c-0.3,0.7-0.7,1.4-1.1,2.1c-0.1,0.1-0.1,0.3-0.1,0.4
				c0.1,0.1,0.2,0.1,0.4,0c2.9-2.1,4.8-5.8,5.7-10.9c0.3-2.4,0.5-4.9,0.6-7.6h0.9c-0.2,2.7,0.2,5.7,1.2,8.9c0.2,1,0.7,2,1.3,3.2
				c-1.6,2.4-3.7,4.3-6.1,5.5c-0.1,0.1-0.2,0.2-0.2,0.3s0.2,0.1,0.5,0c1.2-0.3,2.7-1,4.6-2.3c0.8-0.5,1.5-1.1,2.2-1.8
				c1,1.6,2.3,3.1,3.8,4.3c0.1,0.1,0.3,0.1,0.5-0.2c0.7-1.2,1.7-1.9,2.8-1.9c0.2,0,0.3-0.1,0.3-0.2
				C153.4,45.4,153.4,45.3,153.2,45.3z M144.3,34.7c-0.6-1.7-0.9-3.4-1.1-5.2h5c0.1,0,0.2,0,0.2,0.1c0.1,0.4,0.1,1.7-0.2,3.9
				c-0.3,2.1-0.9,4-1.7,5.7C145.4,37.5,144.7,36,144.3,34.7z"/>
		</g>
		<g>
			<path fill="#FFFFFF" d="M132.8,60.8c0.6,0,1.5,0.1,2.5,0.4c1,0.3,1.6,0.3,1.8,0.2c0.2-0.2,0.3-0.4,0.3-0.8h0.5v4.9h-0.5
				c0-0.7-0.3-1.4-0.8-2.2c-0.4-0.6-0.9-1.1-1.6-1.4c-0.7-0.4-1.5-0.5-2.3-0.5c-0.7,0-1.4,0.3-1.9,0.7s-0.8,1-0.8,1.7
				c0,0.4,0.2,0.8,0.5,1.2c0.4,0.4,1.5,1.1,3.4,2c2.2,1,3.5,1.9,4.1,2.6c0.5,0.6,0.7,1.3,0.7,1.9c0,1-0.4,1.8-1.3,2.5
				c-1,0.8-2.3,1.2-3.9,1.2c-0.8,0-1.7-0.1-2.7-0.4s-1.5-0.3-1.8-0.2c-0.2,0.1-0.3,0.4-0.3,0.8h-0.5v-4.9h0.5c0,0.8,0.3,1.6,0.8,2.4
				c0.4,0.6,1,1.1,1.7,1.3c0.7,0.3,1.4,0.4,2.3,0.4c1,0,1.8-0.2,2.3-0.6c0.6-0.5,0.9-1.1,0.9-1.6s-0.2-1-0.6-1.5
				c-0.5-0.5-1.6-1.2-3.5-2.2c-2.1-1-3.4-1.9-3.9-2.5c-0.4-0.6-0.7-1.1-0.7-1.7c0-1.1,0.5-2,1.4-2.7
				C130.4,61.2,131.5,60.8,132.8,60.8z"/>
			<path fill="#FFFFFF" d="M149,74c0.4,0,1-0.3,1.8-0.9v0.5c-0.5,0.5-0.9,0.9-1.4,1.1c-0.4,0.2-0.8,0.3-1.2,0.3s-0.7-0.1-0.9-0.2
				c-0.3-0.1-0.4-0.5-0.4-1v-0.2c-1.5,1-2.6,1.5-3.5,1.5c-0.8,0-1.5-0.2-2-0.6s-0.7-0.9-0.7-1.5s0.2-1.1,0.7-1.6
				c0.6-0.6,2.4-1.4,5.5-2.4v-0.7c0-0.8-0.2-1.4-0.7-1.7c-0.4-0.3-0.9-0.5-1.6-0.5c-0.7,0-1.2,0.2-1.5,0.5s-0.4,0.6-0.3,0.9
				c0.1,0.2,0.1,0.4,0.1,0.6s-0.1,0.4-0.3,0.6c-0.2,0.1-0.4,0.2-0.6,0.2c-0.3,0-0.5-0.1-0.6-0.2c-0.2-0.1-0.2-0.3-0.2-0.5
				c0-0.6,0.3-1.1,0.8-1.6c0.7-0.6,1.7-0.9,2.9-0.9c1.3,0,2.2,0.2,2.8,0.6c0.7,0.4,1,1.1,1,2.1v4.9C148.7,73.8,148.8,74,149,74z
				 M146.9,69.6c-2.2,0.8-3.5,1.3-3.9,1.8c-0.4,0.4-0.6,0.8-0.6,1.2c0,0.4,0.1,0.8,0.5,1.1c0.4,0.3,0.8,0.5,1.2,0.5
				c0.6,0,1.5-0.4,2.7-1.1v-3.5H146.9z"/>
			<path fill="#FFFFFF" d="M153.3,63.1c0-0.4-0.1-0.6-0.3-0.8s-0.7-0.2-1.5,0.1l-0.2-0.4l3.7-1.5v9.3l3.4-2.5
				c0.4-0.3,0.5-0.6,0.4-0.8c-0.1-0.2-0.4-0.3-0.8-0.3v-0.4h4.8v0.4c-0.7,0-1.3,0.1-1.7,0.2c-0.5,0.1-0.9,0.4-1.2,0.7l-3.2,2.2
				l3.9,4c0.3,0.4,0.7,0.7,1.2,0.9c0.5,0.2,1.1,0.4,1.7,0.4V75h-5.4v-0.4c0.5,0,0.9-0.1,1-0.3c0.1-0.2,0-0.4-0.4-0.7l-3.6-3.4v3
				c0,0.1,0,0.2,0,0.4c0,0.3,0.1,0.6,0.3,0.8c0.2,0.2,0.6,0.3,1,0.3c0.3,0,0.5,0,0.6,0V75h-5.5v-0.4c0.1,0,0.3,0,0.5,0
				c0.4,0,0.7-0.1,0.9-0.3c0.2-0.2,0.3-0.5,0.3-0.8c0-0.2,0-0.3,0-0.4v-10H153.3z"/>
			<path fill="#FFFFFF" d="M172.7,74c0.4,0,1-0.3,1.8-0.9v0.5c-0.5,0.5-0.9,0.9-1.4,1.1c-0.4,0.2-0.8,0.3-1.2,0.3s-0.7-0.1-0.9-0.2
				c-0.3-0.1-0.4-0.5-0.4-1v-0.2c-1.5,1-2.6,1.5-3.5,1.5c-0.8,0-1.5-0.2-2-0.6s-0.7-0.9-0.7-1.5s0.2-1.1,0.7-1.6
				c0.6-0.6,2.4-1.4,5.5-2.4v-0.7c0-0.8-0.2-1.4-0.7-1.7c-0.4-0.3-0.9-0.5-1.6-0.5c-0.7,0-1.2,0.2-1.5,0.5s-0.4,0.6-0.3,0.9
				c0.1,0.2,0.1,0.4,0.1,0.6s-0.1,0.4-0.3,0.6c-0.2,0.1-0.4,0.2-0.6,0.2s-0.5-0.1-0.6-0.2c-0.2-0.1-0.2-0.3-0.2-0.5
				c0-0.6,0.3-1.1,0.8-1.6c0.7-0.6,1.7-0.9,2.9-0.9c1.3,0,2.2,0.2,2.8,0.6c0.7,0.4,1,1.1,1,2.1v4.9C172.4,73.8,172.5,74,172.7,74z
				 M170.6,69.6c-2.2,0.8-3.5,1.3-3.9,1.8c-0.4,0.4-0.6,0.8-0.6,1.2c0,0.4,0.1,0.8,0.5,1.1c0.4,0.3,0.8,0.5,1.2,0.5
				c0.6,0,1.5-0.4,2.7-1.1v-3.5H170.6z"/>
			<path fill="#FFFFFF" d="M176.9,67.3c-0.4-0.6-1-1-1.8-1v-0.4h4.7v0.4c-1.1,0-1.4,0.3-1.1,1l3,5.6l2-4.2l-0.6-1.3
				c-0.3-0.6-0.9-1-1.9-1V66h5.2v0.4c-1.4,0-1.9,0.3-1.6,1l2.7,5.6l2.5-5.6c0.2-0.6-0.2-0.9-1.2-0.9v-0.4h3.4v0.4
				c-0.8,0-1.2,0.3-1.5,0.9l-3.5,8h-0.3l-2.8-6l-2.7,6h-0.3L176.9,67.3z"/>
			<path fill="#FFFFFF" d="M201.9,74c0.4,0,1-0.3,1.8-0.9v0.5c-0.5,0.5-0.9,0.9-1.4,1.1c-0.4,0.2-0.8,0.3-1.2,0.3s-0.7-0.1-0.9-0.2
				c-0.3-0.1-0.4-0.5-0.4-1v-0.2c-1.5,1-2.6,1.5-3.5,1.5c-0.8,0-1.5-0.2-2-0.6s-0.7-0.9-0.7-1.5s0.2-1.1,0.7-1.6
				c0.6-0.6,2.4-1.4,5.5-2.4v-0.7c0-0.8-0.2-1.4-0.7-1.7c-0.4-0.3-0.9-0.5-1.6-0.5c-0.7,0-1.2,0.2-1.5,0.5s-0.4,0.6-0.3,0.9
				c0.1,0.2,0.1,0.4,0.1,0.6s-0.1,0.4-0.3,0.6c-0.2,0.1-0.4,0.2-0.6,0.2c-0.3,0-0.5-0.1-0.6-0.2c-0.2-0.1-0.2-0.3-0.2-0.5
				c0-0.6,0.3-1.1,0.8-1.6c0.7-0.6,1.7-0.9,2.9-0.9c1.3,0,2.2,0.2,2.8,0.6c0.7,0.4,1,1.1,1,2.1v4.9C201.6,73.8,201.7,74,201.9,74z
				 M199.8,69.6c-2.2,0.8-3.5,1.3-3.9,1.8c-0.4,0.4-0.6,0.8-0.6,1.2c0,0.4,0.1,0.8,0.5,1.1c0.4,0.3,0.8,0.5,1.2,0.5
				c0.6,0,1.5-0.4,2.7-1.1v-3.5H199.8z"/>
			<path fill="#FFFFFF" d="M213.9,61.7c-0.9,0-1.6,0.3-2,0.7c-0.5,0.5-0.7,1.1-0.8,2h-0.5l0.1-3.3h13.1l0.3,3.3h-0.5
				c-0.1-0.9-0.4-1.5-0.8-2c-0.5-0.5-1.2-0.7-2.1-0.7h-2.3v11c0,0.1,0,0.3,0,0.5c0,0.4,0.1,0.8,0.5,1c0.3,0.3,0.7,0.4,1.2,0.4
				c0.3,0,0.6,0,0.7,0V75H214v-0.4c0.2,0,0.4,0,0.7,0c0.5,0,0.9-0.1,1.2-0.4c0.3-0.2,0.5-0.6,0.5-1c0-0.2,0-0.4,0-0.5v-11
				C216.4,61.7,213.9,61.7,213.9,61.7z"/>
			<path fill="#FFFFFF" d="M228.6,72.7c0.8,0.7,1.7,1.1,2.7,1.1c0.7,0,1.4-0.2,1.9-0.5s1-0.9,1.4-1.7l0.4,0.1
				c-0.5,1.3-1.2,2.3-2.1,2.9c-0.8,0.5-1.6,0.8-2.5,0.8c-1.3,0-2.5-0.4-3.4-1.3s-1.4-2-1.4-3.5s0.4-2.6,1.3-3.5
				c0.9-0.9,2-1.4,3.3-1.4c1.5,0,2.7,0.5,3.7,1.5c0.8,0.8,1.1,1.7,1.1,2.9h-7.7C227.5,71.2,227.9,72.1,228.6,72.7z M232.4,69.4
				c0-1-0.3-1.8-0.8-2.4s-1.1-0.9-1.8-0.9s-1.3,0.3-1.8,0.8s-0.7,1.2-0.7,2.1c0,0.1,0,0.3,0,0.4H232.4z"/>
			<path fill="#FFFFFF" d="M241.4,65.6c0.7,0,1.3,0.1,1.8,0.2c0.7,0.2,1.2,0.5,1.6,0.9c0.3,0.3,0.5,0.6,0.5,0.9s-0.1,0.5-0.3,0.7
				s-0.5,0.3-0.8,0.3s-0.6-0.1-0.8-0.3c-0.2-0.2-0.3-0.4-0.3-0.7c0-0.5-0.2-0.9-0.5-1.1c-0.4-0.3-0.8-0.4-1.4-0.4
				c-0.7,0-1.3,0.3-1.8,0.9c-0.6,0.7-0.9,1.6-0.9,2.7c0,1.3,0.3,2.3,1,3.1c0.6,0.7,1.4,1,2.3,1c0.6,0,1.3-0.2,1.8-0.5
				c0.6-0.3,1.2-1,1.8-2l0.4,0.2c-0.2,1.1-0.8,2-1.7,2.8c-0.9,0.7-1.9,1-3.1,1c-1.3,0-2.3-0.5-3.3-1.5c-0.8-0.9-1.2-2-1.2-3.4
				s0.5-2.6,1.4-3.5C238.9,66,240.1,65.6,241.4,65.6z"/>
			<path fill="#FFFFFF" d="M248.9,63.1c0-0.4-0.1-0.6-0.3-0.8s-0.7-0.2-1.5,0.1L247,62l3.7-1.5v7c0.8-0.8,1.5-1.3,2-1.5
				c0.6-0.3,1.1-0.4,1.5-0.4c0.8,0,1.5,0.3,2.1,0.8c0.6,0.5,0.9,1.2,0.9,2v4.7c0,0.1,0,0.2,0,0.4c0,0.3,0.1,0.6,0.4,0.8
				c0.2,0.2,0.5,0.3,0.9,0.3c0.2,0,0.4,0,0.6,0V75h-5.4v-0.4c0.1,0,0.3,0,0.5,0c0.4,0,0.7-0.1,0.9-0.3c0.2-0.2,0.3-0.5,0.3-0.8
				c0-0.2,0-0.3,0-0.4v-4.3c0-0.9-0.2-1.5-0.6-1.9c-0.3-0.3-0.7-0.4-1.1-0.4c-0.5,0-1,0.1-1.5,0.4c-0.4,0.2-0.9,0.6-1.5,1.1v5
				c0,0.1,0,0.2,0,0.4c0,0.3,0.1,0.6,0.3,0.8c0.2,0.2,0.6,0.3,1,0.3c0.3,0,0.5,0,0.6,0V75h-5.5v-0.4c0.1,0,0.3,0,0.5,0
				c0.4,0,0.7-0.1,0.9-0.3c0.2-0.2,0.3-0.5,0.3-0.8c0-0.2,0-0.3,0-0.4v-10H248.9z"/>
			<path fill="#FFFFFF" d="M261.6,67.9c0-0.4-0.1-0.6-0.3-0.8c-0.2-0.2-0.7-0.2-1.5,0.1l-0.2-0.4l3.7-1.5v2.3c0.9-0.8,1.5-1.3,2-1.5
				c0.6-0.3,1.1-0.4,1.5-0.4c0.8,0,1.5,0.3,2.1,0.8s0.9,1.2,0.9,2v4.7c0,0.1,0,0.2,0,0.4c0,0.3,0.1,0.6,0.4,0.8
				c0.2,0.2,0.5,0.3,0.9,0.3c0.2,0,0.4,0,0.5,0V75h-5.3v-0.4c0.1,0,0.3,0,0.5,0c0.4,0,0.7-0.1,0.9-0.3c0.2-0.2,0.3-0.5,0.3-0.8
				c0-0.2,0-0.3,0-0.4v-4.3c0-0.9-0.2-1.5-0.6-1.9c-0.3-0.3-0.7-0.4-1.1-0.4c-0.5,0-1,0.1-1.5,0.4c-0.4,0.2-0.9,0.6-1.5,1.1v5
				c0,0.1,0,0.2,0,0.4c0,0.3,0.1,0.6,0.3,0.8c0.2,0.2,0.6,0.3,1,0.3c0.3,0,0.5,0,0.6,0V75h-5.5v-0.4c0.1,0,0.3,0,0.5,0
				c0.4,0,0.7-0.1,0.9-0.3c0.2-0.2,0.3-0.5,0.3-0.8c0-0.2,0-0.3,0-0.4v-5.2H261.6z"/>
			<path fill="#FFFFFF" d="M274.3,67c1-0.9,2.2-1.4,3.7-1.4c1.4,0,2.6,0.4,3.6,1.3s1.6,2.1,1.6,3.5s-0.5,2.6-1.5,3.5
				s-2.2,1.4-3.7,1.4c-1.4,0-2.6-0.4-3.6-1.3s-1.6-2.1-1.6-3.5C272.9,69,273.4,67.9,274.3,67z M274.9,69.7c0,1.5,0.4,2.7,1.1,3.7
				c0.6,0.9,1.4,1.3,2.3,1.3s1.5-0.2,2-0.7c0.6-0.6,0.9-1.5,0.9-2.8c0-1.6-0.3-2.8-1-3.7c-0.7-0.9-1.5-1.4-2.4-1.4s-1.6,0.3-2.1,0.9
				C275.2,67.7,274.9,68.6,274.9,69.7z"/>
			<path fill="#FFFFFF" d="M288.6,73.1c0,0.1,0,0.2,0,0.4c0,0.3,0.1,0.6,0.3,0.8c0.2,0.2,0.6,0.3,1,0.3c0.3,0,0.5,0,0.6,0V75H285
				v-0.4c0.1,0,0.3,0,0.5,0c0.4,0,0.7-0.1,0.9-0.3c0.2-0.2,0.3-0.5,0.3-0.8c0-0.2,0-0.3,0-0.4v-10c0-0.4-0.1-0.6-0.3-0.8
				c-0.2-0.2-0.7-0.2-1.5,0.1l-0.2-0.4l3.7-1.5v12.6H288.6z"/>
			<path fill="#FFFFFF" d="M293.6,67c1-0.9,2.2-1.4,3.7-1.4c1.4,0,2.6,0.4,3.6,1.3s1.6,2.1,1.6,3.5S302,73,301,73.9
				s-2.2,1.4-3.7,1.4c-1.4,0-2.6-0.4-3.6-1.3s-1.6-2.1-1.6-3.5C292.1,69,292.6,67.9,293.6,67z M294.1,69.7c0,1.5,0.4,2.7,1.1,3.7
				c0.6,0.9,1.4,1.3,2.3,1.3s1.5-0.2,2-0.7c0.6-0.6,0.9-1.5,0.9-2.8c0-1.6-0.3-2.8-1-3.7c-0.7-0.9-1.5-1.4-2.4-1.4s-1.6,0.3-2.1,0.9
				C294.4,67.7,294.1,68.6,294.1,69.7z"/>
			<path fill="#FFFFFF" d="M314.2,76c0,0.9-0.6,1.7-1.7,2.4c-1.2,0.7-2.6,1-4.2,1c-1.7,0-2.9-0.2-3.9-0.7c-0.7-0.3-1-0.7-1-1.1
				c0-0.7,0.7-1.6,2.1-2.7c-0.3-0.1-0.5-0.2-0.6-0.2c-0.4-0.2-0.5-0.5-0.5-0.8c0-0.5,0.5-1.2,1.6-2c-0.3-0.2-0.6-0.3-0.8-0.5
				c-0.7-0.6-1-1.4-1-2.3c0-1,0.4-1.8,1.1-2.4c0.8-0.8,1.8-1.1,3-1.1c1.1,0,2,0.3,2.7,0.8h2.9l0.2,0.7h-2.4c0.5,0.6,0.8,1.3,0.8,2.1
				c0,0.9-0.3,1.7-1,2.3c-0.7,0.7-1.8,1-3.1,1c-0.8,0-1.5-0.1-2.1-0.3c-0.4,0.4-0.6,0.7-0.6,0.9c0,0.2,0.1,0.3,0.2,0.4
				c0.3,0.2,1.3,0.2,3.2,0.2c2.1,0,3.5,0.3,4.2,0.8C314,74.9,314.2,75.4,314.2,76z M309.1,75.3c-1.1,0-2.1-0.1-2.8-0.1
				c-0.8,0.8-1.2,1.4-1.2,1.8s0.2,0.7,0.7,1c0.7,0.4,1.7,0.5,3.1,0.5s2.6-0.3,3.4-0.8c0.7-0.4,1.1-0.9,1.1-1.4
				c0-0.3-0.2-0.6-0.5-0.7C312.5,75.4,311.2,75.3,309.1,75.3z M306.1,68.8c0,1.2,0.3,2.1,0.9,2.7c0.4,0.4,0.9,0.6,1.6,0.6
				s1.2-0.2,1.6-0.6s0.7-1.1,0.7-2.2s-0.3-1.9-0.7-2.4c-0.6-0.6-1.2-0.9-1.8-0.9c-0.6,0-1.1,0.2-1.5,0.6
				C306.4,67.1,306.1,67.8,306.1,68.8z"/>
			<path fill="#FFFFFF" d="M317.1,67.6c-0.6-0.9-1.3-1.3-2.2-1.3v-0.4h5.6v0.4c-0.8,0-1.3,0.1-1.4,0.4c-0.2,0.3-0.1,0.7,0.2,1.1
				l3,4.9l2.8-5.3c0.2-0.4,0.2-0.7,0.1-0.9c-0.2-0.2-0.6-0.3-1.2-0.3v-0.4h3.7v0.4c-0.8,0-1.3,0.3-1.5,0.8l-5.1,10
				c-0.3,0.6-0.8,1.1-1.5,1.5c-0.7,0.5-1.6,0.7-2.5,0.7c-0.4,0-0.8-0.1-1-0.3c-0.2-0.2-0.4-0.4-0.4-0.7c0-0.3,0.1-0.5,0.3-0.7
				c0.2-0.2,0.5-0.2,0.8-0.2c0.2,0,0.5,0.1,0.8,0.1c0.4,0.1,0.7,0.1,0.8,0.1c0.7,0,1.3-0.4,1.8-1.1l1-2L317.1,67.6z"/>
			<path fill="#FFFFFF" d="M342.9,60.8c0.9,0,1.9,0.2,3.1,0.6c0.8,0.3,1.3,0.3,1.5,0.2c0.3-0.2,0.5-0.5,0.6-0.9h0.5l0.4,4.8h-0.5
				c-0.6-1.7-1.4-2.8-2.3-3.3c-1-0.6-2-0.8-3.2-0.8c-1.4,0-2.7,0.6-3.8,1.7c-1.1,1.1-1.6,2.9-1.6,5.4c0,2,0.6,3.6,1.8,4.8
				c1,1,2.4,1.4,4.3,1.4c1,0,1.9-0.2,2.6-0.6c0.8-0.4,1.7-1.3,2.7-2.6l0.4,0.2c-0.9,1.3-1.9,2.3-2.9,2.9c-1,0.5-2.1,0.8-3.4,0.8
				c-2.7,0-4.7-0.7-6.1-2.2c-1.3-1.3-1.9-2.9-1.9-4.7c0-2.3,0.9-4.3,2.7-5.8C339.2,61.4,340.9,60.8,342.9,60.8z"/>
			<path fill="#FFFFFF" d="M352.7,67c1-0.9,2.2-1.4,3.7-1.4c1.4,0,2.6,0.4,3.6,1.3s1.6,2.1,1.6,3.5s-0.5,2.6-1.5,3.5
				s-2.2,1.4-3.7,1.4c-1.4,0-2.6-0.4-3.6-1.3s-1.6-2.1-1.6-3.5C351.3,69,351.8,67.9,352.7,67z M353.3,69.7c0,1.5,0.4,2.7,1.1,3.7
				c0.6,0.9,1.4,1.3,2.3,1.3s1.5-0.2,2-0.7c0.6-0.6,0.9-1.5,0.9-2.8c0-1.6-0.3-2.8-1-3.7c-0.7-0.9-1.5-1.4-2.4-1.4s-1.6,0.3-2.1,0.9
				C353.6,67.7,353.3,68.6,353.3,69.7z"/>
			<path fill="#FFFFFF" d="M365.8,72.8c0.4,0,0.7,0.1,1,0.3c0.3,0.2,0.4,0.5,0.4,0.9s-0.1,0.6-0.4,0.9c-0.3,0.2-0.6,0.3-1,0.3
				s-0.8-0.1-1-0.3c-0.2-0.2-0.4-0.5-0.4-0.9s0.1-0.7,0.4-0.9C365,73,365.3,72.8,365.8,72.8z"/>
			<path fill="#FFFFFF" d="M371.6,72.3c0.5,0,0.8,0.1,1.1,0.4c0.3,0.3,0.5,0.7,0.5,1.3c0,0.5-0.1,1.1-0.4,1.6
				c-0.3,0.6-0.9,1.3-1.7,2l-0.4-0.3c0.5-0.6,0.8-1,1-1.4c0.1-0.3,0.2-0.5,0.2-0.7c0-0.3-0.3-0.6-0.9-0.8c-0.5-0.2-0.8-0.5-0.8-1
				c0-0.3,0.1-0.6,0.3-0.8C370.8,72.4,371.2,72.3,371.6,72.3z"/>
			<path fill="#FFFFFF" d="M379.7,73.1c0,0.5,0.1,0.8,0.2,1s0.4,0.3,0.9,0.3h3.3c1.2,0,2.1-0.3,2.7-0.8s1.1-1.3,1.6-2.5l0.4,0.1
				l-1.3,3.8H375v-0.4c0.2,0,0.4,0,0.7,0c0.5,0,0.9-0.1,1.3-0.4c0.3-0.2,0.5-0.6,0.5-1c0-0.2,0-0.4,0-0.5v-9.4c0-0.1,0-0.3,0-0.5
				c0-0.4-0.2-0.8-0.5-1.1c-0.3-0.2-0.7-0.4-1.2-0.4c-0.3,0-0.6,0-0.7,0v-0.4h7.1v0.4c-0.2,0-0.4,0-0.8,0c-0.5,0-0.9,0.1-1.2,0.4
				c-0.3,0.3-0.5,0.6-0.5,1.1c0,0.2,0,0.4,0,0.5V73.1z"/>
			<path fill="#FFFFFF" d="M389.9,66.5v-0.6h1.8v-1.2l1.5-1.8h0.3v3h2.6v0.6h-2.6v6.3c0,0.5,0.1,0.8,0.3,1c0.2,0.2,0.5,0.3,0.9,0.3
				c0.5,0,0.9-0.3,1.4-1l0.4,0.1c-0.7,1.3-1.6,1.9-2.6,1.9c-0.7,0-1.2-0.2-1.5-0.5c-0.4-0.4-0.6-1-0.6-1.8v-6.5h-1.9V66.5z"/>
			<path fill="#FFFFFF" d="M407.3,73.8c0.2,0.1,0.6,0,1.3-0.1l0.2,0.4l-3.6,1.4v-1.6c-0.5,0.4-0.9,0.8-1.3,1
				c-0.5,0.3-1.2,0.4-1.9,0.4c-1.2,0-2.2-0.4-3.1-1.3s-1.3-1.9-1.3-3.1c0-1.5,0.5-2.8,1.5-3.8c0.9-1,2.1-1.5,3.5-1.5
				c0.8,0,1.5,0.2,2.1,0.6c0.2,0.1,0.4,0.3,0.6,0.6v-3.7c0-0.4-0.1-0.6-0.3-0.8c-0.2-0.2-0.7-0.2-1.5,0.1l-0.2-0.4l3.7-1.5v12.3
				C407,73.4,407.1,73.7,407.3,73.8z M405.2,68.6c-0.3-0.8-0.6-1.4-1.1-1.8s-1.1-0.6-1.6-0.6c-0.8,0-1.4,0.3-2,0.9
				c-0.6,0.7-1,1.8-1,3.2c0,1.3,0.4,2.2,1.1,2.9c0.7,0.7,1.4,1,2.2,1c0.5,0,1.1-0.1,1.6-0.4c0.3-0.2,0.6-0.4,0.9-0.7v-4.5H405.2z"/>
			<path fill="#FFFFFF" d="M412.4,72.8c0.4,0,0.7,0.1,1,0.3c0.3,0.2,0.4,0.5,0.4,0.9s-0.1,0.6-0.4,0.9c-0.3,0.2-0.6,0.3-1,0.3
				s-0.8-0.1-1-0.3c-0.2-0.2-0.4-0.5-0.4-0.9s0.1-0.7,0.4-0.9C411.6,73,411.9,72.8,412.4,72.8z"/>
		</g>
	</g>
</g>
</svg>
